<?xml version="1.0" standalone="no"?>
<!DOCTYPE svg PUBLIC "-//W3C//DTD SVG 20010904//EN"
 "http://www.w3.org/TR/2001/REC-SVG-20010904/DTD/svg10.dtd">
<svg version="1.0" xmlns="http://www.w3.org/2000/svg"
 width="640.000000pt" height="220.000000pt" viewBox="0 0 640.000000 220.000000"
 preserveAspectRatio="xMidYMid meet">

<g transform="translate(0.000000,220.000000) scale(0.100000,-0.100000)"
fill="#000000" stroke="none">
<path d="M130 1080 l0 -870 870 0 870 0 0 870 0 870 -870 0 -870 0 0 -870z
m1114 348 c13 -24 28 -56 32 -71 6 -26 8 -27 24 -12 12 11 31 15 57 13 33 -3
38 -6 38 -28 0 -22 -5 -25 -39 -28 l-39 -3 54 -33 c52 -31 54 -34 57 -80 2
-29 8 -49 18 -53 16 -6 20 -93 4 -93 -5 0 -10 -13 -10 -30 0 -25 -4 -30 -35
-36 -43 -8 -117 3 -126 18 -4 7 -97 11 -275 12 -218 1 -271 -2 -280 -13 -14
-18 -102 -26 -138 -12 -23 9 -27 16 -24 36 3 14 0 26 -8 29 -19 7 -18 75 0 82
7 3 16 27 20 53 7 52 19 67 81 99 22 12 36 22 30 22 -5 1 -26 2 -45 3 -25 2
-36 7 -38 21 -5 24 14 36 60 36 24 0 40 -6 46 -16 7 -13 13 -7 27 30 10 26 27
58 37 72 l19 24 214 0 214 0 25 -42z m273 -494 c8 -22 -37 -65 -154 -144 -139
-94 -159 -99 -496 -134 l-138 -14 -110 -66 c-70 -42 -111 -61 -114 -53 -2 6
-13 46 -25 87 l-20 75 29 25 c134 116 201 170 231 185 30 16 52 17 195 10 154
-7 185 -13 185 -40 0 -23 -30 -38 -83 -40 -75 -3 -77 -3 -77 -20 0 -25 23 -28
136 -15 119 12 140 20 264 88 131 72 166 84 177 56z"/>
<path d="M781 1409 c-33 -44 -57 -106 -46 -117 9 -9 505 -9 527 0 17 7 16 10
-2 54 -11 25 -30 59 -41 75 l-20 29 -195 0 -194 0 -29 -41z"/>
<path d="M610 1195 c0 -20 7 -26 38 -34 123 -34 135 -34 116 -4 -19 30 -58 51
-106 57 -46 5 -48 4 -48 -19z"/>
<path d="M1335 1211 c-51 -9 -81 -26 -96 -53 -11 -21 -10 -21 42 -15 81 8 109
22 109 52 0 14 -3 24 -7 24 -5 -1 -26 -5 -48 -8z"/>
<path d="M839 1078 c-2 -24 3 -43 14 -50 14 -9 279 -11 301 -2 10 4 16 18 16
35 l0 29 -165 0 c-125 0 -165 -3 -166 -12z"/>
<path d="M2077 1203 c-4 -54 -7 -153 -7 -221 l0 -122 680 0 680 1 0 102 c0
107 -21 180 -55 193 -11 5 -15 22 -15 75 l0 69 -638 0 -639 0 -6 -97z"/>
<path d="M3520 1080 l0 -220 1120 0 c1256 0 1165 -6 1201 73 37 83 12 199 -50
232 -29 15 -31 19 -31 75 l0 60 -1120 0 -1120 0 0 -220z m2260 -60 c0 -25 -5
-52 -10 -60 -7 -10 -10 8 -10 60 0 52 3 70 10 60 5 -8 10 -35 10 -60z"/>
</g>
</svg>
